<svg xmlns="http://www.w3.org/2000/svg" id="RenderMap" width="720" height="720"><style xmlns="http://www.w3.org/1999/xhtml">body { margin: 0px; font-family: -apple-system, BlinkMacSystemFont, "Segoe UI", Roboto, Oxygen, Ubuntu, Cantarell, "Fira Sans", "Droid Sans", "Helvetica Neue", sans-serif; -webkit-font-smoothing: antialiased; } code { font-family: source-code-pro, Menlo, Monaco, Consolas, "Courier New", monospace; }</style><path class="country" fill="rgb(245, 84, 61)" stroke="white" stroke-width="0.5" d="M588.2554145655463,252.46559363639426L567.4721510336402,274.68558575426334L557.8908681136666,275.0109385738731L551.3362947651748,280.2125842684909L546.6214442369162,280.3487265692246L544.6097160310688,282.6729671531995L539.5843242575958,282.67165434907935L536.6179973692277,280.17991258156866L529.8991184006672,283.2635986574754L527.7253731308209,286.3347228508112L522.8206645992884,285.7549916927163L521.1925385869954,284.9051271266344L519.4702714853164,285.1082259406654L517.1457588286091,285.0338332388532L507.8359276065571,278.7722371516104L502.7168984536247,278.7722371516104L500.20428034963834,276.3439026040516L500.20428034963834,272.1997640729867L496.383913264115,270.9603229432409L492.0373373950937,262.9117595656488L488.678412744896,261.1947930788535L487.38970948847464,258.2315083395146L483.6622371828773,254.61617435984277L479.1455977764108,254.08449662064172L481.65078042224116,249.8532279882989L485.5539582454511,249.67050286630473L486.65334965493446,247.39921739617262L486.555089892888,240.7021366316494L488.730852273593,232.88385768251453L492.2148080581322,230.78699410966357L492.9538156098114,227.72295977361273L496.10798339059374,221.98537441780107L500.5439409415467,218.2556217576642L503.5343179363439,210.81800541158452L504.70585966511544,204.3086517379367L513.2687272220218,205.89515071319664L515.5656227075858,200.22321011957797L520.0290871080928,203.67549020993323L524.3422935042138,201.8879648318756L526.116338205055,203.47735048349816L531.1590644961911,203.56821807351244L537.5602908357995,206.6116710731341L539.4622350322985,209.22848684507755L542.7230470159019,211.6594254005254L545.747255964697,216.087602839201L548.2611907899312,218.52726225644162L545.6755469317673,221.8564534488686L543.1878686447455,225.37966310108294L543.7602905968478,227.45179369155613L543.877819863128,229.73257882774098L547.9859751989297,229.85779543975866L549.7569308952756,229.32638124611364L551.3891155726457,230.661840814382L549.7850996743642,233.31417574622526L552.5016584849554,237.43032067777744L555.2146134569693,241.02359355262485L558.0223714479024,243.68395186129388L582.0694624201813,252.51104718900413Z"/><path class="country" fill="rgb(255, 236, 227)" stroke="white" stroke-width="0.5" d="M463.55107058308056,285.69286294995527L457.0762801556235,280.7943815910899L455.32948574917634,277.64387721775785L451.2334885084713,279.2044883843307L447.83263638730295,278.71902601205807L445.86388203016725,279.9576615710135L442.5614676268558,279.06325701367007L438.1063057399166,272.97005230888504L436.9235328520002,270.628155231995L431.4258433199599,267.70268191099603L429.56882907498573,263.26428497994056L426.5035773587117,260.05947482101624L421.55736708771445,256.1985409875824L421.4897149109636,253.78655952742062L417.46251005223553,250.78520094742197L412.4584005000159,247.88151808219243L414.71696394281787,247.07081933559277L417.2422063074072,245.66530330921006L419.13613808084835,239.010933002584L421.1563319725184,235.54880683777108L426.45934093815436,234.5220268820181L427.7219621204482,236.5751407765165L431.50982566733177,240.9322298360605L433.5300195590018,241.57233727961443L436.1815240418204,240.29196098846762L441.484533007456,240.54808799317374L442.49462995329037,242.08430804323626L449.8178328105977,242.08430804323626L450.07035704705623,240.54808799317374L453.8582205939394,239.13906547421647L454.6157933033156,236.9599022968091L457.3935599043631,235.4204838637748L463.5804036976042,239.7796286786642L467.3682672444878,239.010933002584L471.0298686731408,233.6232236009575L475.0702564564825,229.50988055615903L474.4389458653352,225.00204458302971L472.6712762101233,222.8090270974606L477.09045034815256,222.42177973646466L477.5954988210706,220.74284656703162L481.004576013265,221.25959136618764L480.12074118565863,226.80632301284905L481.004576013265,232.21010861653963L484.79243956014733,235.16381695966737L485.67627438775366,237.72924114577296L485.5500122695248,241.44432863036846L486.56812839678213,241.59178511347397L486.65334965493446,247.39921739617262L485.5539582454511,249.67050286630473L481.65078042224116,249.8532279882989L479.1455977764108,254.08449662064172L483.6622371828773,254.61617435984277L487.38970948847464,258.2315083395146L488.678412744896,261.1947930788535L492.0373373950937,262.9117595656488L496.383913264115,270.9603229432409L491.39876858815745,275.8260880429398L486.8741399286348,280.23253420611053L482.3509547745485,283.6232346947067L477.17628386282,283.60613420092955L471.2559125563396,285.331067519388L466.57908620246576,283.6829386454187Z"/><path class="country" fill="rgb(254, 231, 221)" stroke="white" stroke-width="0.5" d="M542.6242724197728,323.8998751354224L538.2692909152369,317.83093682776104L538.1814013825681,291.03059511077777L544.6097160310688,282.6729671531995L546.6214442369162,280.3487265692246L551.3362947651748,280.2125842684909L557.8908681136666,275.0109385738731L567.4721510336402,274.68558575426334L588.2554145655463,252.46559363639426L593.3840142566237,246.26015911296074L596.7039118067357,241.6852570912946L596.7046719435532,237.792078796379L596.7065722855967,230.246458319216L596.7324169373893,227.15803998382205L596.7780129663164,227.03535907334987L596.7780129663172,227.03535907334978L599.1282691032586,226.8874479429835L602.5177896075066,225.7723451160503L606.416995853508,225.01642287766472L609.8975684426464,222.44382699494406L612.6863511202507,222.4232229282153L612.8530838152803,224.50130454455666L612.1739441126325,228.8661326919408L612.2017451530918,232.80296291561922L610.6489320123075,235.50425744111814L608.5764306390225,243.5710033533872L605.035328271318,251.88080084141652L600.4884607494323,261.3533793765177L594.176962635644,272.1932790603835L587.897751973606,280.4573578301172L579.2483187431004,290.5094667890291L571.8878829599204,296.46887535672045L560.8863199015634,303.7744119019481L554.0303479715848,309.3690990721778L545.9812848290923,318.278675718643L544.2851271701727,322.15776111757066Z"/><path class="country" fill="rgb(252, 183, 157)" stroke="white" stroke-width="0.5" d="M525.0985112237962,345.953011953551L514.5420590036917,338.5811385875483L514.0403899640816,334.30692982003416L487.3714696524062,319.313352584992L486.12918381557455,318.5055270865539L486.05459003902973,310.71051884927476L488.1612251350823,307.7304140468923L491.7805087356128,302.8614380608106L494.45683694003674,297.4985675706906L491.2213253742059,289.0479687610063L490.3612582653946,285.35074266363523L486.8741399286348,280.23253420611053L491.39876858815745,275.8260880429398L496.383913264115,270.9603229432409L500.20428034963834,272.1997640729867L500.20428034963834,276.3439026040516L502.7168984536247,278.7722371516104L507.8359276065571,278.7722371516104L517.1457588286091,285.0338332388532L519.4702714853164,285.1082259406654L521.1925385869954,284.9051271266344L522.8206645992884,285.7549916927163L527.7253731308209,286.3347228508112L529.8991184006672,283.2635986574754L536.6179973692277,280.17991258156866L539.5843242575958,282.67165434907935L544.6097160310688,282.6729671531995L538.1814013825681,291.03059511077777L538.2692909152369,317.83093682776104L542.6242724197728,323.8998751354224L537.4732838758437,326.8382283087514L535.6572434234092,329.90939562343283L532.9006011021029,330.44902918356706L531.8573266076196,335.6379231784394L529.4954884799254,338.61091323304356L528.0600575099689,343.51661893856635Z"/><path class="country" fill="rgb(254, 228, 216)" stroke="white" stroke-width="0.5" d="M477.7128545435389,379.70272194301594L484.9230658511125,381.09313206471774L486.40224097933555,383.15551867192835L488.8967023959095,386.63737959879415L490.9559581767512,396.8220025099534L488.8967475383416,402.53448063496626L490.9559581767512,412.34444857563693L493.5092577464884,412.23419008225244L496.1628953761257,414.6751569905819L499.2437298971571,420.16310004904193L499.8693224978995,429.96553812518073L496.6858695065156,431.57675019137116L494.440805416245,436.8978892991345L489.64168161941996,432.159578555258L489.09742365814236,426.77062471805584L490.6446821500149,423.22639902495854L490.2178653270297,420.1780253903183L487.3141426844587,418.25571198382414L485.29065847646814,418.95341103685723L481.0566964034,415.31187334425584L477.1891202763319,413.34999101958203L479.4220221775235,406.3306027052513L481.73625871817967,403.70717886702147L480.32316437458314,397.47646169445767L481.80163048447844,391.3984821424329L483.05471602800674,389.37039412935076L481.1843993887279,383.029036722989Z"/><path class="country" fill="rgb(252, 174, 146)" stroke="white" stroke-width="0.5" d="M486.12918381557455,318.5055270865539L487.3714696524062,319.313352584992L514.0403899640816,334.30692982003416L514.5420590036917,338.5811385875483L525.0985112237962,345.953011953551L521.7029598060094,355.054399790643L522.1385829875974,359.2469016871496L526.847329054591,361.9447377064902L527.0679722328402,363.87121729332915L525.0431297860559,368.3501093247263L525.4648524474143,370.6064768464042L524.9830412938464,374.1565711883536L527.5514749841069,378.82191346832883L530.5953211757662,386.1771523329698L533.2944214412437,387.8114945563157L533.2944491752759,387.81151135544565L527.4430656358611,392.14980982702707L519.401038021685,395.06019611087464L514.9887878919183,394.9371108144907L512.3679146729606,397.1878755222126L507.247970584663,397.3814030964626L505.32786498384246,398.33063118875396L496.4897542076194,396.21505380385963L490.9559581767512,396.8220025099534L488.8967023959095,386.63737959879415L486.40224097933555,383.15551867192835L484.9230658511125,381.09313206471774L477.7128545435389,379.70272194301594L473.53894327904743,377.4664966405436L468.8648619886892,376.21371109525694L465.93327345269705,374.9677411455419L462.86087893502463,373.0747812449748L462.86092133624254,373.07479231415255L458.8892064651867,363.72284737745645L454.6236987141954,359.5752328999285L453.1524539040655,355.28398345370744L453.887886274926,351.44047078221274L452.56410800737706,344.6486058229993L455.60541541390194,344.29749186067136L458.2737827823011,341.62565749311636L461.13640737689263,337.781252963064L462.95082977935317,336.2393017193245L462.88294522817887,333.84527197693797L461.29909494698757,332.17584852950085L460.8726184971787,329.2767798988029L460.8725916834339,329.2765976542436L462.99546555292716,328.34484827707524L463.4207621022775,324.01513105334965L460.5006965181318,319.8638782228747L463.0804208727118,318.980347460112L471.14353163088515,319.07457705680673Z"/><path class="country" fill="#c9d1da" stroke="white" stroke-width="0.5" d="M596.7780129663172,227.03535907334978L596.7780129663164,227.03535907334987L596.7324169373893,227.15803998382205L596.7065722855967,230.246458319216L596.7046719435532,237.792078796379L596.7039118067357,241.6852570912946L593.3840142566237,246.26015911296074L588.2554145655463,252.46559363639426L582.0694624201813,252.51104718900413L558.0223714479024,243.68395186129388L555.2146134569693,241.02359355262485L552.5016584849554,237.43032067777744L549.7850996743642,233.31417574622526L551.3891155726457,230.661840814382L554.0990033267736,226.6494978450093L556.4919140280329,228.0323408339474L557.9335135022839,231.1315205429903L561.2515107103518,234.26447804184926L564.9028279128623,234.2894054272694L571.836035824613,232.37539657916807L579.8414167173459,231.48811705173796L586.3155019913712,229.16059729667262L589.9630185097935,228.66705728564597L592.5900513508216,227.29896784314423L596.7780251464357,227.03532630051677Z"/><path class="country" fill="rgb(253, 207, 188)" stroke="white" stroke-width="0.5" d="M220.81587552070172,34.90100659421904L223.5880944938577,40.640975861843515L224.0259333006957,46.05099283036736L226.56631054453646,55.35076621075166L228.50427936056667,57.2091571178218L227.15579664645128,60.59661824782876L217.53056419578255,62.06118071389872L214.20344534590464,65.26557082938177L209.9485795103575,66.01924403446046L209.63274266271637,72.38961264658204L201.03350488136994,75.7747705479326L198.22042855427702,80.03821320201857L192.2005250286643,82.31746538316528L184.85608309868496,83.60788110190717L172.97894532638912,89.82605478690442L173.0416566138269,99.71893900474265L171.92197508175695,99.71893900474265L172.09072545522577,104.15655484324296L167.5443471501951,104.42276351162988L165.1738604850493,106.30049024126956L161.8341993776839,106.30049024126956L159.17296037987222,105.22924797585068L152.9854466860166,106.115146524269L150.59025557430456,112.51960115658494L148.2916018384053,113.11914551230649L144.8333593875215,123.38425773961458L134.60913912472046,132.08777983680434L132.1816421982674,143.12105834851607L129.1686498881914,146.6866338093998L128.2851808721369,149.5386153994797L111.72217968881242,150.1697697852496L111.59371656666706,150.15731747701972L111.9407190238228,146.49004875258612L114.76576750579052,144.3282184218713L117.17236066976355,140.18224229006918L116.6980352956891,137.48123315549947L119.22663041886004,131.82792874389986L123.32034724911347,126.70775050042681L125.79649293188099,125.4060617227646L127.74320332131211,120.67993623525891L127.91765472091136,116.34359614742178L130.5726225899794,111.28760083207035L135.47189441250023,108.2939130311999L140.13381351377967,99.85409346099783L140.26861479497848,99.73785592116269L143.96642334724623,96.54343864831515L150.80575436204583,95.62254324822473L156.60103745810795,89.90284962513755L160.28846115944611,87.66304245087196L166.42808623380387,80.60591618330301L164.59007540926552,69.97944749461394L167.3843383501267,62.54936501520015L168.37061587073865,57.96737542737293L173.1013273539947,52.049429055256496L180.4803555091673,48.021772417642126L185.9349072768186,44.35833953511042L190.8493818356877,35.10369091503475L193.16133796589216,29.558860332460142L198.5754124480165,29.6024173366323L203.00929050406708,33.439179067854525L210.00330936121262,32.81558015749306L217.62102047705648,34.80475836962438Z"/><path class="country" fill="rgb(255, 245, 239)" stroke="white" stroke-width="0.5" d="M173.0416566138269,99.71893900474265L173.04507722950524,100.27465989861835L172.9033117130552,101.88093326794277L172.8820278821672,114.34457219606296L148.74274303954832,113.91697015971403L148.9795256581768,134.62604623111147L142.08812527138406,135.3450065311246L140.28964156135197,139.44960420502562L141.68449262133046,150.90952266115963L112.88252854061469,150.86015251117232L111.27749965061773,153.4909883534773L111.59371656666706,150.15731747701972L111.72217968881242,150.1697697852496L128.2851808721369,149.5386153994797L129.1686498881914,146.6866338093998L132.1816421982674,143.12105834851607L134.60913912472046,132.08777983680434L144.8333593875215,123.38425773961458L148.2916018384053,113.11914551230649L150.59025557430456,112.51960115658494L152.9854466860166,106.115146524269L159.17296037987222,105.22924797585068L161.8341993776839,106.30049024126956L165.1738604850493,106.30049024126956L167.5443471501951,104.42276351162988L172.09072545522577,104.15655484324296L171.92197508175695,99.71893900474265Z"/><path class="country" fill="rgb(255, 240, 234)" stroke="white" stroke-width="0.5" d="M372.4931960016661,285.72812681073486L372.0572575368717,290.17695423688264L369.85438103996836,294.11388299591374L368.41696231821413,298.70542108461126L367.50023731639703,305.2247640033555L367.8852466144239,309.3931991727473L366.6865108533416,311.9453676162432L366.5033178803417,314.6427416702328L365.6580457393628,316.9890290050007L360.8155941439447,320.53446123254827L357.44552756388214,324.32426594636L354.2514326570541,331.47465673443526L354.4977169859005,337.53478256852566L352.63880239888294,339.89345279906775L348.35429122745586,343.49432266895246L344.0268323258443,348.1190829657549L341.27931779925456,346.81146465114233L340.80803297244984,344.7225676001433L336.8017318762012,344.64974955406205L334.2864391473354,347.4747669581924L332.35417135743614,346.7229801175453L329.59791525744595,344.19151405204L327.37565527169835,345.4325004128068L324.40694093123733,348.6192591308902L318.3672738483715,340.8050862007295L323.96682171394724,336.7370673373485L321.1934625355649,331.8665749469028L323.7155964957877,330.01519579462524L328.67814970835934,329.1136073889L329.26345505777806,325.8517932372711L333.1933624038755,329.38635773160456L339.6860710299278,329.6960164278198L341.9425371724597,326.2180163239273L342.8710442949466,321.3259611607272L342.0690999525612,315.58268523472213L338.58957367078943,311.2331193234033L341.77378679899084,302.7143858061022L339.9380563849048,301.25226777402395L334.46583143624815,301.85180333582355L332.410041413517,298.0500546129407L332.9447976645769,294.8398368493317L342.2264482737686,295.12853085274895L348.17299859649967,297.0704610478566L354.0169304488779,298.8096075793656L354.545985673807,294.83584300421603L358.40139961179665,287.98351179454806L362.78472856948906,284.07876532606525L367.7628645868182,285.31687162424237Z"/><path class="country" fill="rgb(251, 127, 95)" stroke="white" stroke-width="0.5" d="M452.56410800737706,344.6486058229993L453.887886274926,351.44047078221274L453.1524539040655,355.28398345370744L454.6236987141954,359.5752328999285L458.8892064651867,363.72284737745645L462.86092133624254,373.07479231415255L462.86087893502463,373.0747812449748L459.96365985661964,372.31853703177967L450.0849217773392,373.57305265306377L448.1135069413423,374.461837598875L446.0174296672875,379.2133630447787L447.6635059454255,382.5008830628566L446.3572108246774,391.3485703494923L445.4465669173998,398.87684734174917L447.433564558154,400.2140782526286L452.5755100596384,403.1421421576009L454.59405337831566,401.77341589320855L455.20900406361415,409.903912493749L449.58019093056754,409.8414376486199L446.5594072181128,405.6876579345443L443.84951946398587,402.47769210853915L438.2134850311737,401.42623039171673L436.56322800053977,397.4881018191878L432.0670187254595,399.8597802988529L426.1774786640354,398.81161991162L423.71957626488546,395.4032156829665L419.049675727023,394.71141867576426L415.6028353284005,394.8923883743778L415.1809593947287,392.56263232364984L412.64400276656613,392.37411331802707L409.2944598805743,391.9324916898564L404.7385798653258,393.0543282086736L401.5425846164542,392.87041340336214L399.7220569387167,393.55775254822163L400.1154277417351,384.6566073020147L397.66208616348956,381.88766943261066L397.1223890231166,377.30529861924447L398.20596405635877,372.8212771071381L396.7153357573845,369.9549941122921L396.58041147229125,365.2861850543462L387.6564052356988,365.3509408135296L388.2968205043809,362.6805100690543L384.5444051051529,362.70845991600095L384.14799375486473,363.992482053575L379.58641271348563,364.28205673233043L377.74118058918174,368.6045649790483L376.6389822039126,370.4611742902704L372.57491070953955,369.4124496948032L370.14817391990385,370.4569525756948L365.2848185620062,371.05764669383626L362.46813158503073,367.17612271786436L360.77796737148185,364.77776199927706L358.66706742948725,360.3350406829892L356.853000914698,354.8216443104156L335.1495745035237,354.7238337788909L332.57005021358543,355.6122378678177L330.4393867143375,355.47390156990724L327.403780333943,356.46796512193634L326.37341487792094,354.1744566399919L328.2441115856087,353.39368583509014L328.47443304128905,350.17277326762763L329.6777296232758,348.2743571372408L332.35417135743614,346.7229801175453L334.2864391473354,347.4747669581924L336.8017318762012,344.64974955406205L340.80803297244984,344.7225676001433L341.27931779925456,346.81146465114233L344.0268323258443,348.1190829657549L348.35429122745586,343.49432266895246L352.63880239888294,339.89345279906775L354.4977169859005,337.53478256852566L354.2514326570541,331.47465673443526L357.44552756388214,324.32426594636L360.8155941439447,320.53446123254827L365.6580457393628,316.9890290050007L366.5033178803417,314.6427416702328L366.6865108533416,311.9453676162432L367.8852466144239,309.3931991727473L367.50023731639703,305.2247640033555L368.41696231821413,298.70542108461126L369.85438103996836,294.11388299591374L372.0572575368717,290.17695423688264L372.4931960016661,285.72812681073486L373.1545150328275,280.58726142349553L376.01795042407485,276.8417571758545L379.95621927516385,274.4647747207399L386.0084286155172,276.97332329474546L390.69277175291074,279.6948629456668L396.07302014665856,280.42091204487167L401.5596876948465,281.86016268176724L403.7587635076625,277.40594246270314L404.76898533802296,276.83718090240336L408.12080863446715,277.57829371684244L416.3090024317902,273.89434042967923L419.2104446639088,275.4561014959504L421.5919533129073,275.2346584256072L422.6949118349939,273.43927920830214L425.4283638304613,272.80650821649596L430.96139972451186,273.5835297984419L435.6780486766462,273.75353373267615L438.1063057399166,272.97005230888504L442.5614676268558,279.06325701367007L445.86388203016725,279.9576615710135L447.83263638730295,278.71902601205807L451.2334885084713,279.2044883843307L455.32948574917634,277.64387721775785L457.0762801556235,280.7943815910899L463.55107058308056,285.69286294995527L463.5511255664661,285.6929045317269L463.10606545986275,294.30407753849136L466.0538760378445,295.3008307160115L463.6894704672378,297.91391991817113L460.864041916862,299.8681602756088L458.05191576079096,303.704656694244L456.504657268918,307.1245002426936L456.0907627718294,313.0281856710057L454.3869160955669,315.83848393656916L454.32534501335533,321.3841274716098L452.2102643188649,323.4349032612056L451.93775526981733,327.8138629434264L450.92753343945697,328.38136399949866L450.246830919451,332.40882096186147L452.09624379625086,335.757466766237Z"/><path class="country" fill="rgb(255, 243, 237)" stroke="white" stroke-width="0.5" d="M383.10394583612873,499.6332472059241L383.0963444679546,530.0239649815915L376.5314228442468,534.3121897714182L372.5802316672614,534.9262660835659L367.9559393384446,533.3369904140876L364.6561854139943,532.7253333998804L363.4164022647709,529.1446347153244L360.5119194853825,526.8594233681363L356.9886853366087,530.9915902549698L351.5229215509002,524.6870305638017L348.6446634917131,518.6340685164301L347.02101124968897,510.6255186314139L345.2080849401258,504.7095951151461L342.7437213780277,492.25054028633406L342.578771688646,482.6732810735475L341.6373422402627,478.33474230526247L338.77580719105896,475.0674165957041L334.97968392482886,468.54592015309316L331.11362807139534,459.13973557074416L329.5082191129896,454.2455305506955L323.5240420177959,446.6717627856138L323.07746163755763,440.7489126812563L326.61703872790633,439.2843303314977L331.0197511744432,437.9742005326738L335.78770936175374,438.2038641054225L340.1721785246723,441.68511147457855L341.2842586885679,441.1434661189888L371.09758480487017,440.8110147075773L376.1935420289004,444.50704691173064L393.9993669087179,445.60076128163746L407.5164998646127,442.4541281610293L413.5386838006776,440.70233794775504L418.308162261623,441.14585527427903L421.2103646305592,442.88384567552646L421.26547454982256,443.5242827503333L417.11930827916734,445.264448211935L414.88830672001905,445.2816213459015L410.19332166718164,448.31387425838307L407.3827157847454,445.12467488150793L396.0429947423703,447.8328347616837L390.5681093148527,448.08894087440564L390.3510902534772,475.9803833777824L383.1016654256764,476.2563412005607Z"/><path class="country" fill="rgb(255, 241, 234)" stroke="white" stroke-width="0.5" d="M174.70597617558317,254.81876569758572L174.36657508660198,256.9764526189591L175.10200745746255,260.5597051658319L173.5028696278007,263.8493688551382L175.64702555555775,265.880870753789L177.9833060639194,266.37534393823813L181.098346741735,269.472303874156L181.32220703446734,272.3835947244427L180.6187004099386,273.3081904876859L180.05391875459043,279.38669246876304L178.12735199082186,279.4516822222032L170.5468875790316,275.93462119028874L163.86414474862258,270.31330098845933L157.59814692836798,266.267929848486L152.64547549442264,261.4922061616384L154.40310185051814,259.12180267927994L154.7936221404712,256.96533816560947L158.11142931433545,252.93744549152174L161.53508554002644,249.4694357433112L163.10552820483053,249.30365039058546L165.02677401087715,248.46670092376212L168.10152743736916,253.01860685865518L167.61560997682892,255.99957719645911L169.04656753563515,257.5792595791177L171.1259217997066,257.6154704758008L172.62586177469433,254.62853701896827Z"/><path class="country" fill="rgb(252, 174, 147)" stroke="white" stroke-width="0.5" d="M356.9886853366087,530.9915902549698L360.5119194853825,526.8594233681363L363.4164022647709,529.1446347153244L364.6561854139943,532.7253333998804L367.9559393384446,533.3369904140876L372.5802316672614,534.9262660835659L376.5314228442468,534.3121897714182L383.0963444679546,530.0239649815915L383.10394583612873,499.6332472059241L385.089423203248,500.8503533997489L389.4499480564176,508.58616486320204L388.7722860836816,513.579566753088L390.41342147250623,516.4687646926463L395.68154968568365,515.6283898088283L399.3594716768041,511.9606569390758L402.84241857425434,509.4964262563221L404.6424225579213,505.58549241499554L408.2302683361765,503.6987171665143L411.3301062776436,504.68687680333267L414.84345864779107,506.9697542660797L420.82953608502817,507.3733934964923L425.5328826428573,505.47433090125037L426.2770565871184,502.93577821222607L427.5700493135615,499.05494753423443L431.57178958890574,498.4071603179791L433.78302759080077,495.37279347775507L436.23218841655034,490.0118046738795L442.8354969495382,484.03777252349164L453.24215004852186,478.17681124880096L456.2344286303231,478.2633629139055L459.7930091411073,479.6088520047117L462.27143523432795,478.6551852084258L466.18081888635464,479.4490979801476L469.70367296671975,490.69126398351636L471.6173174045922,496.41161835363596L470.30684153134825,505.45370003904463L470.93471454254296,508.3834380529036L467.2233465314558,506.8879502265031L465.0972438531125,507.46958307130984L464.40285887039306,509.84994443714965L462.394577398751,512.9275976993788L462.46336978072827,515.7709534560681L466.85277983296015,520.2457660762753L471.1574346300489,519.3528316725885L472.65490416038006,515.6883915653642L478.2331681950676,515.7573344986087L476.39553743893805,521.7720467558684L475.52670105661895,528.6856553428272L473.62369853419057,532.4643164421577L468.60489519712934,536.7109893806521L467.1674764753749,537.9307792452424L464.0505354555157,542.2300208181193L461.9989261852804,546.6010501861876L457.8280554680586,552.7348894975148L449.51595936949514,561.649963182312L444.3249850432863,566.8798926441041L438.77104538675644,570.8701340227334L431.0841618205264,574.2890232868567L427.3347869685679,574.7492003950879L426.3857561520105,577.2063710974467L421.9157715971313,575.897205433396L418.275096310065,577.5835203387701L410.30392157411717,575.8761674217336L405.84799955036056,576.956264274804L402.80289145974814,576.4924574788067L395.21748615864465,579.9970724033285L388.9383759782894,581.4073861400218L384.3946581521197,584.7847563572531L381.04929601862375,585L377.93729588807787,581.8124692621818L375.45164849509183,581.6493034964392L372.28415837687356,577.6784101734922L371.9367758513095,578.9093942220193L370.95923990409847,576.5249558887203L371.0002872922396,571.3491702593893L368.61079720665794,565.4758435102383L370.98432441907363,563.8869687394313L370.79200980426447,557.2273838352496L365.97578292904734,549.1804125868223L362.27999772271767,541.9643510199369L362.2689757388648,541.9415581592702ZM449.90362914638285,534.1705748373272L446.6928112295715,531.5847153794108L443.2554725411667,533.2957660269368L439.27045527580583,536.5872759432314L435.3485293662915,541.9415581592702L440.8656023871764,548.4909718194597L443.49719604910854,547.6418937823252L444.84947944731107,544.9177274150798L448.94851723528575,543.5894890158713L450.19894229995316,540.8210812122278L452.4550283740764,536.7109893806521Z"/><path class="country" fill="rgb(255, 239, 232)" stroke="white" stroke-width="0.5" d="M420.6444125911488,145.58409553678433L420.6444125911497,161.31739338350158L412.1864240916375,161.34118704127476L412.09566619765144,164.62041992769517L382.76189112681993,149.58217091177423L353.4280425082633,134.34456925462396L346.0030318215826,138.71767722036668L340.8000515358674,141.6801917773352L336.6633869754297,137.29952175124254L325.0287328478927,133.8479695918939L321.8011919210977,128.81457641084722L315.99602704640813,125.06429063871752L312.55754815277743,126.54481732439439L309.94229743241993,122.03196377700826L309.6659876992852,118.55032994251232L305.31724496678567,112.59959028504397L308.2361703457045,109.17118377917626L307.59461487179686,103.9891478294112L308.52920308882324,99.45457878619288L307.997867453442,95.65982830799987L309.2931405903373,88.82884389255025L308.89330862437043,84.91424001161144L306.5140803858244,77.42596899609063L310.10230623248833,75.44916766779772L310.7389208170831,71.8333347544557L309.9567400319512,68.27269880389656L315.0070890469358,64.94624639861541L317.27153662605053,62.16996619436759L320.85672192544473,59.67400786068919L321.2725167645773,52.95682698481198L329.91086290241043,55.97425607636873L332.99949965925407,55.221121486086474L339.14382379165636,56.68103497630682L348.9032393042024,60.577560688812554L352.34755286438207,68.27105901600686L358.9497851393753,69.94123995845553L369.316116487556,73.53204182612984L377.1513028425999,77.77659251777956L380.7377106095713,75.56448228188665L384.262926668442,71.62807572364028L382.54911755526257,65.0295500236318L384.8558684361209,60.81132367548267L390.155349839011,56.72613792338629L395.2188165889017,55.533002848495244L405.1682058779194,57.32219589560984L407.6764775282443,61.217374601386325L410.41488001348284,61.254135777543354L412.75641896877755,62.73524310015483L420.06441522326054,63.75215947193621L421.8566262124442,66.60769684971345L419.19456626688026,70.73940473405568L420.3327173280103,74.40435931224627L418.4384956427499,79.66660574667617L420.6444125911488,86.48326006808111L420.6444125911488,115.96634504483268Z"/><path class="country" fill="rgb(255, 235, 226)" stroke="white" stroke-width="0.5" d="M306.5140803858244,77.42596899609063L303.3769957403034,61.988723548783156L298.8427796243518,58.47680307955184L298.7793082000966,56.36299118585944L292.7643455637972,51.13549929613089L292.11594885853197,44.47469797987128L296.6501649744838,39.50430707563555L298.3813765761735,32.09320591224821L297.2153266982407,23.431315066242348L298.7093756128934,18.723806893510073L306.71893725812106,15L311.86734392255374,16.109278791386544L311.65146506640446,20.76741317026415L317.8899079270275,17.381911813908175L318.4132621258259,19.150969542657663L314.7357202031144,23.643154271109438L314.68631130998153,27.85784391136525L317.2327696483618,30.111558205847075L316.26435534295996,37.90785853702812L311.4230439527677,42.39888097044752L312.82093556001576,47.237459760370655L316.62466019442024,47.387894912673175L318.47559334485493,51.58236955469823L321.2725167645773,52.95682698481198L320.85672192544473,59.67400786068919L317.27153662605053,62.16996619436759L315.0070890469358,64.94624639861541L309.9567400319512,68.27269880389656L310.7389208170831,71.8333347544557L310.10230623248833,75.44916766779772Z"/><path class="country" fill="rgb(254, 229, 217)" stroke="white" stroke-width="0.5" d="M462.86087893502463,373.0747812449748L465.93327345269705,374.9677411455419L468.8648619886892,376.21371109525694L473.53894327904743,377.4664966405436L477.7128545435389,379.70272194301594L481.1843993887279,383.029036722989L483.05471602800674,389.37039412935076L481.80163048447844,391.3984821424329L480.32316437458314,397.47646169445767L481.73625871817967,403.70717886702147L479.4220221775235,406.3306027052513L477.1891202763319,413.34999101958203L481.0566964034,415.31187334425584L458.73831930692745,421.570205689546L459.43536476850784,426.9930663663472L453.8647021019947,428.03825335530263L449.67710837478944,431.08391449531166L448.78280740908673,433.7394517625477L446.15007354192846,434.34253966401025L439.75390229168954,440.6637258675167L435.6807091555071,445.6578867887214L433.1973421729733,445.83726839866205L430.8082321558004,444.9469836129357L422.5877325437368,444.10116809701645L421.26547454982256,443.5242827503333L421.2103646305592,442.88384567552646L418.308162261623,441.14585527427903L413.5386838006776,440.70233794775504L407.5164998646127,442.4541281610293L402.7169959993788,437.6444705839544L397.75520292362455,431.3690752427091L398.09384387578814,407.1948288430637L413.40832033648894,407.28996850454064L412.78158753052037,404.6870409297051L413.87732475284133,401.8667347066373L412.58471209480683,398.3407234283485L413.4212426623851,394.7009562230461L412.64400276656613,392.37411331802707L415.1809593947287,392.56263232364984L415.6028353284005,394.8923883743778L419.049675727023,394.71141867576426L423.71957626488546,395.4032156829665L426.1774786640354,398.81161991162L432.0670187254595,399.8597802988529L436.56322800053977,397.4881018191878L438.2134850311737,401.42623039171673L443.84951946398587,402.47769210853915L446.5594072181128,405.6876579345443L449.58019093056754,409.8414376486199L455.20900406361415,409.903912493749L454.59405337831566,401.77341589320855L452.5755100596384,403.1421421576009L447.433564558154,400.2140782526286L445.4465669173998,398.87684734174917L446.3572108246774,391.3485703494923L447.6635059454255,382.5008830628566L446.0174296672875,379.2133630447787L448.1135069413423,374.461837598875L450.0849217773392,373.57305265306377L459.96365985661964,372.31853703177967Z"/><path class="country" fill="rgb(255, 238, 231)" stroke="white" stroke-width="0.5" d="M139.34973238660356,245.77316798263476L143.2815400747445,242.4981100021932L144.12909262617546,240.42906532658094L145.38521871697353,238.81990065321065L147.41212354064248,238.6501699673483L149.12623206394022,237.24326674744407L155.00855082559866,237.25156546480898L157.05559927492942,239.9213244672428L158.6497962152781,243.0555951611781L158.41168335721915,245.22125478748498L159.59179576627443,247.16870928072584L159.50970098999238,249.89547771038303L161.53508554002644,249.4694357433112L158.11142931433545,252.93744549152174L154.7936221404712,256.96533816560947L154.40310185051814,259.12180267927994L152.64547549442264,261.4922061616384L150.66398884559493,260.94272644146804L145.3692558438076,257.9572512200611L141.53778621556705,253.98297737271434L140.25087458366323,251.26998956543153Z"/><path class="country" fill="rgb(254, 234, 224)" stroke="white" stroke-width="0.5" d="M136.01121148446447,218.19606696711145L139.56105042184822,218.27375601106291L144.847421918644,220.109936401049L146.46879375021558,219.94166717458785L147.02065307966762,219.1041918904657L151.03094489420783,219.69964552384715L152.09266599394886,219.2748681983983L152.51758247489056,222.03069626419529L153.6840124212322,222.02214549505865L155.60373795364396,221.01950957606937L156.82261734038812,221.27050726663668L158.86434483199682,223.18005695771222L162.01226142716618,223.78051268270528L164.02909443800422,222.1537067224225L166.40528212928092,221.1474426315317L168.1726002297985,220.09340191095595L169.64460517674578,220.29083412922154L171.2788993342137,221.94402087728594L172.155337084707,224.01738409942345L175.16927956580483,227.16269249635252L173.66154818843847,229.09300364371362L173.37459653985988,231.5304869319258L174.9412385205768,230.79383333438835L175.86024393284598,231.66745806590862L175.47029374550598,233.89594661969224L177.71668807520697,236.0512346661568L176.25019412018597,236.63043362050448L175.65975784724958,239.16549797811717L177.35505298431602,242.24831016382421L179.17177997796648,248.20899543513855L176.44022832454274,249.10327363897574L175.73748183683148,250.13670725837926L176.3056841078582,251.57176644188598L175.87240612192483,254.81032837891752L174.70597617558317,254.81876569758572L172.62586177469433,254.62853701896827L171.1259217997066,257.6154704758008L169.04656753563515,257.5792595791177L167.61560997682892,255.99957719645911L168.10152743736916,253.01860685865518L165.02677401087715,248.46670092376212L163.10552820483053,249.30365039058546L161.53508554002644,249.4694357433112L159.50970098999238,249.89547771038303L159.59179576627443,247.16870928072584L158.41168335721915,245.22125478748498L158.6497962152781,243.0555951611781L157.05559927492942,239.9213244672428L155.00855082559866,237.25156546480898L149.12623206394022,237.24326674744407L147.41212354064248,238.6501699673483L145.38521871697353,238.81990065321065L144.12909262617546,240.42906532658094L143.2815400747445,242.4981100021932L139.34973238660356,245.77316798263476L136.12390176764794,241.36466815541343L133.26369695787474,238.4441629079986L131.3806480269038,237.47677791957778L129.54472757861342,235.99195536714646L128.70971728466992,232.68770898014975L127.63355358539772,231.03863746504328L125.49509868377135,229.81124889840197L128.76520727234202,226.1557676579469L130.99734903671623,226.29501667674333L132.91536426128886,225.03484541206308L134.53787629808664,225.02281425722964L135.6972749788671,224.0270913624755L135.07130230971603,221.535663444109L135.87685730198416,220.7490343732275Z"/><path class="country" fill="rgb(255, 244, 239)" stroke="white" stroke-width="0.5" d="M548.2611907899312,218.52726225644162L551.4096392667165,219.1812608037567L553.6277184999685,217.34089127768652L555.3680517434676,219.67279562693875L555.1365900825612,222.7970090936801L550.9406348503636,224.59527495358896L554.0990033267736,226.6494978450093L551.3891155726457,230.661840814382L549.7569308952756,229.32638124611364L547.9859751989297,229.85779543975866L543.877819863128,229.73257882774098L543.7602905968478,227.45179369155613L543.1878686447455,225.37966310108294L545.6755469317673,221.8564534488686Z"/><path class="country" fill="rgb(255, 241, 234)" stroke="white" stroke-width="0.5" d="M438.1063057399166,272.97005230888504L435.6780486766462,273.75353373267615L430.96139972451186,273.5835297984419L425.4283638304613,272.80650821649596L422.6949118349939,273.43927920830214L421.5919533129073,275.2346584256072L419.2104446639088,275.4561014959504L416.3090024317902,273.89434042967923L408.12080863446715,277.57829371684244L404.76898533802296,276.83718090240336L403.7587635076625,277.40594246270314L401.5596876948465,281.86016268176724L396.07302014665856,280.42091204487167L390.69277175291074,279.6948629456668L386.0084286155172,276.97332329474546L379.95621927516385,274.4647747207399L376.01795042407485,276.8417571758545L373.1545150328275,280.58726142349553L372.4931960016661,285.72812681073486L367.7628645868182,285.31687162424237L362.78472856948906,284.07876532606525L358.40139961179665,287.98351179454806L354.545985673807,294.83584300421603L353.7702660516229,292.7029066503995L353.44188694649455,289.34406543044014L350.07828152938015,286.9739295886378L347.3630728175312,283.1708868142675L346.73595994315394,280.52380913674347L343.26023434546914,276.6712882302623L343.8527609946535,274.47164241124483L343.1207492394713,271.3610725050262L343.6881913736805,265.62988307088403L345.4532290637459,264.2865440190755L349.1520548173456,256.77830307668916L355.2327692883521,256.22077509961355L356.5884733022333,254.31210288632326L357.80659255216,254.45709122150862L359.6438432398809,256.13739638974477L368.9030698129586,253.29795434327352L372.0260919273573,250.39788870896263L375.8613622396849,247.7984629515483L375.13315116858985,245.17854367371353L377.20718447493925,244.4939189615721L384.309522828568,244.95670434942724L391.23170875646656,241.50454542844295L396.5488657943679,233.35550800185862L400.27999736270795,230.3246630226912L404.9358353694481,229.04690705770233L405.76970545816556,232.25239365760257L410.01164896781654,236.92750829235666L410.0333128671132,239.973761080052L408.8383777901181,243.07677532337578L409.31080282214896,245.39170773463533L411.8614419130251,247.53492945773908L417.46251005223553,250.78520094742197L421.4897149109636,253.78655952742062L421.55736708771445,256.1985409875824L426.5035773587117,260.05947482101624L429.56882907498573,263.26428497994056L431.4258433199599,267.70268191099603L436.9235328520002,270.628155231995Z"/><path class="country" fill="rgb(253, 198, 176)" stroke="white" stroke-width="0.5" d="M417.46251005223553,250.78520094742197L411.8614419130251,247.53492945773908L409.31080282214896,245.39170773463533L408.8383777901181,243.07677532337578L410.0333128671132,239.973761080052L410.01164896781654,236.92750829235666L405.76970545816556,232.25239365760257L404.9358353694481,229.04690705770233L405.02449362115374,227.2304847116317L402.3213940444357,225.01800003426584L402.2399767116621,220.6507836246845L400.6983428252423,217.74486442819784L398.11534668521733,218.18101755831225L398.8565606686789,215.41122184684968L400.76137322649515,212.26256540944914L399.9281510377041,209.12890542048552L402.3458854372212,206.8047453778687L400.8123418006705,205.03213763404835L402.75723786920264,200.3384635178267L406.11572123304376,194.72278786800985L412.4577416531564,195.25651541371L412.09566619765144,164.62041992769517L412.1864240916375,161.34118704127476L420.6444125911497,161.31739338350158L420.6444125911488,145.58409553678433L450.2105984764008,145.58409553678433L478.74711619649463,145.58409553678433L507.91783595859977,145.58409553678433L510.2896765770421,153.34052520315066L508.6767013963213,154.7689924589171L509.7452763085781,162.84332967809604L512.4451397853483,172.14198292216054L515.2470875059207,174.051533460923L519.2725748995408,176.91237275471292L515.5503983282866,181.31917174586158L510.13338765911556,182.58590115233065L507.8170755738673,184.94522177441178L507.0916008037866,190.04714927808783L503.9241208845823,201.26537226362927L504.70585966511544,204.3086517379367L503.5343179363439,210.81800541158452L500.5439409415467,218.2556217576642L496.10798339059374,221.98537441780107L492.9538156098114,227.72295977361273L492.2148080581322,230.78699410966357L488.730852273593,232.88385768251453L486.555089892888,240.7021366316494L486.65334965493446,247.39921739617262L486.56812839678213,241.59178511347397L485.5500122695248,241.44432863036846L485.67627438775366,237.72924114577296L484.79243956014733,235.16381695966737L481.004576013265,232.21010861653963L480.12074118565863,226.80632301284905L481.004576013265,221.25959136618764L477.5954988210706,220.74284656703162L477.09045034815256,222.42177973646466L472.6712762101233,222.8090270974606L474.4389458653352,225.00204458302971L475.0702564564825,229.50988055615903L471.0298686731408,233.6232236009575L467.3682672444878,239.010933002584L463.5804036976042,239.7796286786642L457.3935599043631,235.4204838637748L454.6157933033156,236.9599022968091L453.8582205939394,239.13906547421647L450.07035704705623,240.54808799317374L449.8178328105977,242.08430804323626L442.49462995329037,242.08430804323626L441.484533007456,240.54808799317374L436.1815240418204,240.29196098846762L433.5300195590018,241.57233727961443L431.50982566733177,240.9322298360605L427.7219621204482,236.5751407765165L426.45934093815436,234.5220268820181L421.1563319725184,235.54880683777108L419.13613808084835,239.010933002584L417.2422063074072,245.66530330921006L414.71696394281787,247.07081933559277L412.4584005000159,247.88151808219243Z"/><path class="country" fill="rgb(255, 242, 236)" stroke="white" stroke-width="0.5" d="M504.70585966511544,204.3086517379367L503.9241208845823,201.26537226362927L507.0916008037866,190.04714927808783L507.8170755738673,184.94522177441178L510.13338765911556,182.58590115233065L515.5503983282866,181.31917174586158L519.2725748995408,176.91237275471292L523.542263403027,185.8362914036034L525.568408089879,192.87300188038597L529.6001737695115,196.59380010176014L539.6393007172683,203.78480945868864L543.7261763161657,208.1096188201284L547.7115736499346,212.47670490195767L550.0117476594684,215.07187396267858L553.6277184999685,217.34089127768652L551.4096392667165,219.1812608037567L548.2611907899312,218.52726225644162L545.747255964697,216.087602839201L542.7230470159019,211.6594254005254L539.4622350322985,209.22848684507755L537.5602908357995,206.6116710731341L531.1590644961911,203.56821807351244L526.116338205055,203.47735048349816L524.3422935042138,201.8879648318756L520.0290871080928,203.67549020993323L515.5656227075858,200.22321011957797L513.2687272220218,205.89515071319664Z"/><path class="country" fill="rgb(254, 221, 206)" stroke="white" stroke-width="0.5" d="M177.71668807520697,236.0512346661568L178.67541063618668,235.37223381877405L180.71143710166473,236.49433448963418L186.39117940147887,236.5559178916949L187.74479303911193,234.37462028508563L189.01346138739754,234.52050242701017L191.13709362108403,233.6771576874658L192.2753985051809,236.87442747021345L193.99292764415713,235.9315159925978L197.02739381932548,234.82383079489193L200.33474911195006,236.4534067122515L201.62014047021916,238.92327634666367L204.92711569443503,240.49883795462097L207.4997987530166,238.62200897215405L210.94587901482163,238.33845220160634L215.97950501982282,240.26291388937855L217.9307762301577,250.8562442564479L214.83150839130366,257.0914275099237L212.91349316673114,265.45592170291155L216.10302725265475,271.8243571732032L215.76894712139563,274.73833015295145L212.42282485108205,274.8134884172331L207.29114119663276,273.3698236343679L202.5760125181335,273.4551164611488L193.86370438519452,274.7440529044466L188.75748531412899,276.8743630061197L181.4749945347701,279.5805159655462L180.05391875459043,279.38669246876304L180.6187004099386,273.3081904876859L181.32220703446734,272.3835947244427L181.098346741735,269.472303874156L177.9833060639194,266.37534393823813L175.64702555555775,265.880870753789L173.5028696278007,263.8493688551382L175.10200745746255,260.5597051658319L174.36657508660198,256.9764526189591L174.70597617558317,254.81876569758572L175.87240612192483,254.81032837891752L176.3056841078582,251.57176644188598L175.73748183683148,250.13670725837926L176.44022832454274,249.10327363897574L179.17177997796648,248.20899543513855L177.35505298431602,242.24831016382421L175.65975784724958,239.16549797811717L176.25019412018597,236.63043362050448Z"/><path class="country" fill="rgb(254, 227, 215)" stroke="white" stroke-width="0.5" d="M152.09266599394886,219.2748681983983L152.4313069461126,216.92709177733826L151.80248376389616,214.00883532575716L149.0494582453801,211.88639120006005L147.59930723193384,207.55115153097762L147.2619965192006,202.82925023865073L149.73719203094714,201.44333530107298L150.97374459869647,196.95571742311523L153.3050842177449,196.77989427055422L158.4409486246901,198.90325925336944L162.58863516898015,197.39597840186252L165.43192693456567,197.90210856266356L166.53526552506094,196.20577068655166L196.0462472222316,196.08981656923953L197.68244172174312,190.73666037439085L196.4082623815312,189.79241197358556L192.85880351255605,156.31517913968256L189.30896457517227,121.87267625639447L200.56507056763039,121.72678013309584L225.37479608321976,139.2785294575156L250.18452159880937,156.55112266131414L251.93321634729992,160.22745247518026L256.51228053548,162.465930312382L259.91807354596136,163.73716187179147L260.0024487326958,168.69732398738333L268.1609971941391,167.9353069248678L268.18152088820966,185.7471401164605L264.16001705561234,190.87122204121724L263.5336643180525,195.58271281610098L257.00066844067675,196.79310139494532L246.96534217700622,197.4487857761482L244.24595271266114,200.1565796071987L239.53234430779673,200.45554937797948L234.81683556088876,200.4905567349909L232.98110514680255,199.0296388285421L228.932236388778,200.11369655883018L222.05793908037745,203.26871411816538L220.65472651540716,205.64235127894474L214.94837942698305,209.04052439660785L213.94803937524938,210.98492287406364L210.86568458058306,212.52455451826006L207.30900441184227,211.5051833783607L205.29369167463912,213.34991007460553L204.21429739389282,218.52413106940082L198.37625660184955,224.758887545636L198.5461471805445,227.30148778899888L196.54033615355917,230.4791285557185L197.02739381932548,234.82383079489193L193.99292764415713,235.9315159925978L192.2753985051809,236.87442747021345L191.13709362108403,233.6771576874658L189.01346138739754,234.52050242701017L187.74479303911193,234.37462028508563L186.39117940147887,236.5559178916949L180.71143710166473,236.49433448963418L178.67541063618668,235.37223381877405L177.71668807520697,236.0512346661568L175.47029374550598,233.89594661969224L175.86024393284598,231.66745806590862L174.9412385205768,230.79383333438835L173.37459653985988,231.5304869319258L173.66154818843847,229.09300364371362L175.16927956580483,227.16269249635252L172.155337084707,224.01738409942345L171.2788993342137,221.94402087728594L169.64460517674578,220.29083412922154L168.1726002297985,220.09340191095595L166.40528212928092,221.1474426315317L164.02909443800422,222.1537067224225L162.01226142716618,223.78051268270528L158.86434483199682,223.18005695771222L156.82261734038812,221.27050726663668L155.60373795364396,221.01950957606937L153.6840124212322,222.02214549505865L152.51758247489056,222.03069626419529Z"/><path class="country" fill="rgb(254, 231, 220)" stroke="white" stroke-width="0.5" d="M113.84942257238176,210.5786946484529L110.81647667084827,204.6776404893232L107.14691618471963,201.97237510231662L110.38205847968875,200.52733332017618L113.94519981137752,195.17489919882735L115.6927543546421,191.24832669953722L118.21108763077757,188.79149290044307L121.86658558578378,189.45336706077242L125.45519150085643,187.78177022359864L129.56202069120985,187.69749640706118L133.07632323237897,189.95180786502016L137.95830194230354,191.98050475300005L142.4085229399296,197.60030170849313L147.2619965192006,202.82925023865073L147.59930723193384,207.55115153097762L149.0494582453801,211.88639120006005L151.80248376389616,214.00883532575716L152.4313069461126,216.92709177733826L152.09266599394886,219.2748681983983L151.03094489420783,219.69964552384715L147.02065307966762,219.1041918904657L146.46879375021558,219.94166717458785L144.847421918644,220.109936401049L139.56105042184822,218.27375601106291L136.01121148446447,218.19606696711145L122.41958512046193,217.87963194909167L120.44779021605638,218.72814532753546L118.0123118530204,218.48558398304266L114.11623059529862,219.7126812110203L112.90951339763332,213.93194679133217L119.60403834871248,214.0913796184361L121.37135644923018,213.03324550400328L122.68924365644406,212.97115566831653L125.4152843179415,211.22513691976042L128.57023217867203,212.82275635110153L131.7658473591349,212.95592576510796L134.94854021370156,211.25894804386365L133.46266276983624,209.071441751881L131.0376362880399,210.34621564853117L128.75532549371547,210.3108230094884L125.85236298796194,208.44711924929044L123.5206433005048,208.56926118974508L121.85974435442697,210.36205411652753Z"/><path class="country" fill="rgb(103, 0, 13)" stroke="white" stroke-width="0.5" d="M256.571951275648,265.39417309690424L256.9938272093199,253.44778615805413L256.8079737574591,248.72111649090553L258.19446331244575,244.02643395953305L260.4600510967867,241.74189543931038L264.0277532493801,237.12206362465068L263.2527937640134,235.11205292364517L264.7019946064379,232.10056480827478L263.04793689171674,227.6556075855904L263.33450847188686,225.16213853494014L263.84532041319756,218.44684144255007L265.9535598763313,215.4063261018873L266.98810608484933,211.0609582864168L268.9032707963561,209.42421356808825L276.80755349237046,208.52717798570575L284.17974041618595,211.35177879812505L286.9378968582196,214.2061159388597L290.69107239426523,214.33489316188738L294.17667977057647,212.48022042664599L303.07788190264586,216.38301538195606L306.8287770282392,216.19863324621443L311.16725791370357,212.98111361359622L315.4787539421492,213.21032668003977L317.6010559364053,212.1491454579516L321.55946841315614,212.59017481117695L327.25403338091,214.79432111655458L333.00484847315323,210.56970106817607L334.73111918553025,210.8707659911063L339.7077349292241,219.1349419730472L341.07560113218426,218.96853542612166L343.98692514292935,221.96656461056472L343.18536086895267,223.32455529648692L342.7969309552475,225.8213772800588L336.60105575640046,231.62276924847603L334.65738591423974,236.39626109610265L333.61979915845194,240.27659963092455L332.0596183406832,241.93857878350758L330.57545120465716,247.15217537057873L326.64212324288127,250.2156402934175L325.50267815355824,253.97434599039323L323.8505207808809,256.9628469898539L323.1625969611095,260.0441585588536L318.10996753567264,262.5400220462618L313.9809043434093,259.4959831288547L311.1927224970874,259.61891374183153L306.81243408666455,263.95359940069534L304.68291079264304,264.02015243466246L301.1847611588441,271.15489816503487L299.29278062026856,276.38067702976826L291.65720628921474,279.0360014185432L288.86598389562306,278.6481185819706L286.03789486638607,280.3010536539045L280.15481596791017,280.1398410935457L276.2173072536386,275.5245732654992L273.7958914217252,270.17849283839405L268.5889542223504,265.30661455862577L263.06237949124784,265.39799656863613Z"/><path class="country" fill="rgb(255, 235, 226)" stroke="white" stroke-width="0.5" d="M256.571951275648,265.39417309690424L250.4935172150934,266.2572265048165L248.68211117916488,261.1505856285676L249.01695144724147,244.0936075046074L247.53544479007644,242.55838962858894L247.25609450967198,238.8978185552324L244.70203480311736,236.2823519035988L242.4554504392121,234.07548497505485L243.39117886146462,230.13398581575302L245.9205341214528,229.28590148639398L247.4187637886014,226.00642353214516L251.01383086662204,225.30494595977314L252.6207600986626,223.0584684356745L255.08968448166533,220.85540104408346L257.7262190329102,220.83595600836065L263.33450847188686,225.16213853494014L263.04793689171674,227.6556075855904L264.7019946064379,232.10056480827478L263.2527937640134,235.11205292364517L264.0277532493801,237.12206362465068L260.4600510967867,241.74189543931038L258.19446331244575,244.02643395953305L256.8079737574591,248.72111649090553L256.9938272093199,253.44778615805413Z"/><path class="country" fill="rgb(254, 231, 220)" stroke="white" stroke-width="0.5" d="M412.09566619765144,164.62041992769517L412.4577416531564,195.25651541371L406.11572123304376,194.72278786800985L402.75723786920264,200.3384635178267L400.8123418006705,205.03213763404835L402.3458854372212,206.8047453778687L399.9281510377041,209.12890542048552L400.76137322649515,212.26256540944914L398.8565606686789,215.41122184684968L398.11534668521733,218.18101755831225L400.6983428252423,217.74486442819784L402.2399767116621,220.6507836246845L402.3213940444357,225.01800003426584L405.02449362115374,227.2304847116317L404.9358353694481,229.04690705770233L400.27999736270795,230.3246630226912L396.5488657943679,233.35550800185862L391.23170875646656,241.50454542844295L384.309522828568,244.95670434942724L377.20718447493925,244.4939189615721L375.13315116858985,245.17854367371353L375.8613622396849,247.7984629515483L372.0260919273573,250.39788870896263L368.9030698129586,253.29795434327352L359.6438432398809,256.13739638974477L357.80659255216,254.45709122150862L356.5884733022333,254.31210288632326L355.2327692883521,256.22077509961355L349.1520548173456,256.77830307668916L350.3040421641558,254.76852496666004L347.9856248710036,249.64827344645008L346.9495583888509,246.56919587906674L343.74634184021363,245.30552067993983L339.4052004758885,240.9563599118465L341.00300806611983,237.43451599722155L344.35483136256397,238.1847005708851L346.43000487413974,237.6529578138714L350.53778423551466,237.7260889762106L346.53452368653575,230.92814027184437L346.80361211990487,225.94745877904785L346.3123735574865,220.96077294734505L343.38831739920573,216.13606398465706L344.1237497700662,212.57923825932508L339.4071008179331,212.40522109817454L339.42344375950756,207.5362670689258L336.3616126589118,204.72609499022005L339.5372305784728,194.69490498361765L348.9186928143951,187.47459373437104L349.306362591284,177.45635210826947L352.14015264665056,161.6762838245335L353.7398605789259,158.30361236556797L350.679549751965,155.61092938029967L350.56122569328505,153.10728295174204L347.80927312936035,151.05598866398032L346.0030318215826,138.71767722036668L353.4280425082633,134.34456925462396L382.76189112681993,149.58217091177423Z"/><path class="country" fill="rgb(253, 213, 195)" stroke="white" stroke-width="0.5" d="M332.35417135743614,346.7229801175453L329.6777296232758,348.2743571372408L328.47443304128905,350.17277326762763L328.2441115856087,353.39368583509014L326.37341487792094,354.1744566399919L324.40694093123733,348.6192591308902L327.37565527169835,345.4325004128068L329.59791525744595,344.19151405204ZM327.403780333943,356.46796512193634L330.4393867143375,355.47390156990724L332.57005021358543,355.6122378678177L335.1495745035237,354.7238337788909L356.853000914698,354.8216443104156L358.66706742948725,360.3350406829892L360.77796737148185,364.77776199927706L362.46813158503073,367.17612271786436L365.2848185620062,371.05764669383626L370.14817391990385,370.4569525756948L372.57491070953955,369.4124496948032L376.6389822039126,370.4611742902704L377.74118058918174,368.6045649790483L379.58641271348563,364.28205673233043L384.14799375486473,363.992482053575L384.5444051051529,362.70845991600095L388.2968205043809,362.6805100690543L387.6564052356988,365.3509408135296L396.58041147229125,365.2861850543462L396.7153357573845,369.9549941122921L398.20596405635877,372.8212771071381L397.1223890231166,377.30529861924447L397.66208616348956,381.88766943261066L400.1154277417351,384.6566073020147L399.7220569387167,393.55775254822163L401.5425846164542,392.87041340336214L404.7385798653258,393.0543282086736L409.2944598805743,391.9324916898564L412.64400276656613,392.37411331802707L413.4212426623851,394.7009562230461L412.58471209480683,398.3407234283485L413.87732475284133,401.8667347066373L412.78158753052037,404.6870409297051L413.40832033648894,407.28996850454064L398.09384387578814,407.1948288430637L397.75520292362455,431.3690752427091L402.7169959993788,437.6444705839544L407.5164998646127,442.4541281610293L393.9993669087179,445.60076128163746L376.1935420289004,444.50704691173064L371.09758480487017,440.8110147075773L341.2842586885679,441.1434661189888L340.1721785246723,441.68511147457855L335.78770936175374,438.2038641054225L331.0197511744432,437.9742005326738L326.61703872790633,439.2843303314977L323.07746163755763,440.7489126812563L322.38535706529035,435.9136215143287L323.4035603322337,429.17774731378404L325.9412770972137,422.1957519902928L326.3240059847881,418.93300180598567L328.7104555231001,412.10009046666687L330.46371109249526,409.00252752463064L334.6885515237543,404.0676111303841L337.0480162050475,400.7184378943287L337.8203152115533,395.1551508526804L337.43530591352663,390.90831107748846L335.23585003230176,388.233761456138L333.2769774537925,383.70191925780676L331.47051230717733,379.22837742880023L331.86540338383065,377.6804161970499L334.12605027885826,374.73010295849264L331.89466865130146,367.55339910535463L330.38883761597873,362.5901531915757L326.7044544619103,357.905805692522Z"/><path class="country" fill="rgb(255, 243, 237)" stroke="white" stroke-width="0.5" d="M453.24215004852186,478.17681124880096L442.8354969495382,484.03777252349164L436.23218841655034,490.0118046738795L433.78302759080077,495.37279347775507L431.57178958890574,498.4071603179791L427.5700493135615,499.05494753423443L426.2770565871184,502.93577821222607L425.5328826428573,505.47433090125037L420.82953608502817,507.3733934964923L414.84345864779107,506.9697542660797L411.3301062776436,504.68687680333267L408.2302683361765,503.6987171665143L404.6424225579213,505.58549241499554L402.84241857425434,509.4964262563221L399.3594716768041,511.9606569390758L395.68154968568365,515.6283898088283L390.41342147250623,516.4687646926463L388.7722860836816,513.579566753088L389.4499480564176,508.58616486320204L385.089423203248,500.8503533997489L383.10394583612873,499.6332472059241L383.1016654256764,476.2563412005607L390.3510902534772,475.9803833777824L390.5681093148527,448.08894087440564L396.0429947423703,447.8328347616837L407.3827157847454,445.12467488150793L410.19332166718164,448.31387425838307L414.88830672001905,445.2816213459015L417.11930827916734,445.264448211935L421.26547454982256,443.5242827503333L422.5877325437368,444.10116809701645L425.4188621202434,450.2886667227751L426.8988485037737,451.67317298653666L429.2111847023865,456.1745380980887L437.5346828532115,464.76334185450423L440.68430975622,465.6074371579003L440.7025530398382,468.3803792652476L442.8659024222354,473.3821275748666L448.55324609022387,474.59587422198024Z"/><path class="country" fill="rgb(254, 232, 222)" stroke="white" stroke-width="0.5" d="M466.18081888635464,479.4490979801476L462.27143523432795,478.6551852084258L459.7930091411073,479.6088520047117L456.2344286303231,478.2633629139055L453.24215004852186,478.17681124880096L448.55324609022387,474.59587422198024L442.8659024222354,473.3821275748666L440.7025530398382,468.3803792652476L440.68430975622,465.6074371579003L437.5346828532115,464.76334185450423L429.2111847023865,456.1745380980887L426.8988485037737,451.67317298653666L425.4188621202434,450.2886667227751L422.5877325437368,444.10116809701645L430.8082321558004,444.9469836129357L433.1973421729733,445.83726839866205L435.6807091555071,445.6578867887214L439.75390229168954,440.6637258675167L446.15007354192846,434.34253966401025L448.78280740908673,433.7394517625477L449.67710837478944,431.08391449531166L453.8647021019947,428.03825335530263L459.43536476850784,426.9930663663472L459.91121041621716,429.8430367034234L466.0458946012614,429.6909114047919L469.45434809060384,431.3053939399929L471.0396134233477,433.20036584516765L474.5419438096425,433.7572793775082L478.3620113856216,436.22272144487727L478.37835432719623,445.9751165913218L476.9443562211203,451.34456207987785L476.62889944188805,457.1590754055662L477.8109121929871,459.47115880565093L476.9800826515393,464.0790878486222L475.8691426928699,464.7929421315821L473.92965360320505,470.46536936009693Z"/><path class="country" fill="rgb(253, 198, 176)" stroke="white" stroke-width="0.5" d="M172.9033117130552,101.88093326794277L173.04507722950524,100.27465989861835L173.0416566138269,99.71893900474265L172.97894532638912,89.82605478690442L184.85608309868496,83.60788110190717L192.2005250286643,82.31746538316528L198.22042855427702,80.03821320201857L201.03350488136994,75.7747705479326L209.63274266271637,72.38961264658204L209.9485795103575,66.01924403446046L214.20344534590464,65.26557082938177L217.53056419578255,62.06118071389872L227.15579664645128,60.59661824782876L228.50427936056667,57.2091571178218L226.56631054453646,55.35076621075166L224.0259333006957,46.05099283036736L223.5880944938577,40.640975861843515L220.81587552070172,34.90100659421904L227.8860980937941,29.967864704837496L235.83769930669317,28.39167635270337L240.48099505594567,24.63609047219728L247.56394992072984,21.852927740262544L260.0286734528969,20.217859359756233L272.19390307899795,19.47241800610294L275.90337074804125,20.836403229703365L282.82935736002696,17.210836345895245L290.6884119154042,17.139582252540265L293.6795502919791,19.282370179480893L298.7093756128934,18.723806893510073L297.2153266982407,23.431315066242348L298.3813765761735,32.09320591224821L296.6501649744838,39.50430707563555L292.11594885853197,44.47469797987128L292.7643455637972,51.13549929613089L298.7793082000966,56.36299118585944L298.8427796243518,58.47680307955184L303.3769957403034,61.988723548783156L306.5140803858244,77.42596899609063L308.89330862437043,84.91424001161144L309.2931405903373,88.82884389255025L307.997867453442,95.65982830799987L308.52920308882324,99.45457878619288L307.59461487179686,103.9891478294112L308.2361703457045,109.17118377917626L305.31724496678567,112.59959028504397L309.6659876992852,118.55032994251232L309.94229743241993,122.03196377700826L312.55754815277743,126.54481732439439L315.99602704640813,125.06429063871752L321.8011919210977,128.81457641084722L325.0287328478927,133.8479695918939L299.826776734511,149.02420630809883L278.5323039311124,164.45853270081355L268.1609971941391,167.9353069248678L260.0024487326958,168.69732398738333L259.91807354596136,163.73716187179147L256.51228053548,162.465930312382L251.93321634729992,160.22745247518026L250.18452159880937,156.55112266131414L225.37479608321976,139.2785294575156L200.56507056763039,121.72678013309584Z"/><path class="country" fill="rgb(254, 220, 206)" stroke="white" stroke-width="0.5" d="M343.38831739920573,216.13606398465706L346.3123735574865,220.96077294734505L346.80361211990487,225.94745877904785L346.53452368653575,230.92814027184437L350.53778423551466,237.7260889762106L346.43000487413974,237.6529578138714L344.35483136256397,238.1847005708851L341.00300806611983,237.43451599722155L339.4052004758885,240.9563599118465L343.74634184021363,245.30552067993983L346.9495583888509,246.56919587906674L347.9856248710036,249.64827344645008L350.3040421641558,254.76852496666004L349.1520548173456,256.77830307668916L345.4532290637459,264.2865440190755L343.6881913736805,265.62988307088403L343.1207492394713,271.3610725050262L343.8527609946535,274.47164241124483L343.26023434546914,276.6712882302623L346.73595994315394,280.52380913674347L347.3630728175312,283.1708868142675L350.07828152938015,286.9739295886378L353.44188694649455,289.34406543044014L353.7702660516229,292.7029066503995L354.545985673807,294.83584300421603L354.0169304488779,298.8096075793656L348.17299859649967,297.0704610478566L342.2264482737686,295.12853085274895L332.9447976645769,294.8398368493317L332.029212867986,294.43854296300333L327.67552924617337,295.38659928272654L323.2059247597029,294.4006950212825L319.7108156731737,294.8843395936871L307.7424614827865,294.7164073232565L308.81653480581076,288.90313424279094L305.9420774307106,284.0321080393409L302.58645345017953,282.7819465224651L301.0920244671181,279.4777922606136L299.20840543353404,278.4199504577951L299.29278062026856,276.38067702976826L301.1847611588441,271.15489816503487L304.68291079264304,264.02015243466246L306.81243408666455,263.95359940069534L311.1927224970874,259.61891374183153L313.9809043434093,259.4959831288547L318.10996753567264,262.5400220462618L323.1625969611095,260.0441585588536L323.8505207808809,256.9628469898539L325.50267815355824,253.97434599039323L326.64212324288127,250.2156402934175L330.57545120465716,247.15217537057873L332.0596183406832,241.93857878350758L333.61979915845194,240.27659963092455L334.65738591423974,236.39626109610265L336.60105575640046,231.62276924847603L342.7969309552475,225.8213772800588L343.18536086895267,223.32455529648692L343.98692514292935,221.96656461056472L341.07560113218426,218.96853542612166L341.3123837508127,216.56874375979757Z"/><path class="country" fill="rgb(253, 215, 198)" stroke="white" stroke-width="0.5" d="M490.9559581767512,396.8220025099534L496.4897542076194,396.21505380385963L505.32786498384246,398.33063118875396L507.247970584663,397.3814030964626L512.3679146729606,397.1878755222126L514.9887878919183,394.9371108144907L519.401038021685,395.06019611087464L527.4430656358611,392.14980982702707L533.2944491752759,387.81151135544565L533.2944214412437,387.8114945563157L533.2944387022061,387.8114817707874L534.4844328898879,391.1655699049452L534.1818984365518,398.6369137353237L535.0906420017859,405.2396724855614L535.3760733767297,417.05679314957115L536.6694461715815,420.7767202769287L534.4760713848962,426.2185998740831L531.6225177722754,431.52571886006734L526.9396949085167,436.2802632858054L520.2159046899667,439.20241221811386L511.9254724906997,442.9420550618647L503.6156568025882,451.2482813925267L500.7856674313076,452.666327026659L495.65132329799735,458.20003597253833L492.62103787532493,460.0058196746377L491.9996260270784,465.59161254008006L495.48751381384204,471.55289155087166L496.93861499830996,476.19041638177373L497.02996484116704,478.56333287973285L498.32953317565784,478.16639128164366L498.11910747577406,485.9788733395961L496.926452809231,489.6991849850335L498.6599448213733,491.0734973782352L497.566107941096,494.420800885873L494.49173458301266,497.29154626360776L488.4247025747194,500.0263626884818L479.5797505671396,504.4218686144719L476.3541099823882,507.4358312579271L476.9846434724439,510.8812191417684L478.8644618219407,511.432647387707L478.2331681950676,515.7573344986087L472.65490416038006,515.6883915653642L472.0232304650982,512.0551871338887L470.93471454254296,508.3834380529036L470.30684153134825,505.45370003904463L471.6173174045922,496.41161835363596L469.70367296671975,490.69126398351636L466.18081888635464,479.4490979801476L473.92965360320505,470.46536936009693L475.8691426928699,464.7929421315821L476.9800826515393,464.0790878486222L477.8109121929871,459.47115880565093L476.62889944188805,457.1590754055662L476.9443562211203,451.34456207987785L478.37835432719623,445.9751165913218L478.3620113856216,436.22272144487727L474.5419438096425,433.7572793775082L471.0396134233477,433.20036584516765L469.45434809060384,431.3053939399929L466.0458946012614,429.6909114047919L459.91121041621716,429.8430367034234L459.43536476850784,426.9930663663472L458.73831930692745,421.570205689546L481.0566964034,415.31187334425584L485.29065847646814,418.95341103685723L487.3141426844587,418.25571198382414L490.2178653270297,420.1780253903183L490.6446821500149,423.22639902495854L489.09742365814236,426.77062471805584L489.64168161941996,432.159578555258L494.440805416245,436.8978892991345L496.6858695065156,431.57675019137116L499.8693224978995,429.96553812518073L499.2437298971571,420.16310004904193L496.1628953761257,414.6751569905819L493.5092577464884,412.23419008225244L490.9559581767512,412.34444857563693L488.8967475383416,402.53448063496626Z"/><path class="country" fill="#c9d1da" stroke="white" stroke-width="0.5" d="M472.65490416038006,515.6883915653642L471.1574346300489,519.3528316725885L466.85277983296015,520.2457660762753L462.46336978072827,515.7709534560681L462.394577398751,512.9275976993788L464.40285887039306,509.84994443714965L465.0972438531125,507.46958307130984L467.2233465314558,506.8879502265031L470.93471454254296,508.3834380529036L472.0232304650982,512.0551871338887Z"/><path class="country" fill="rgb(255, 243, 237)" stroke="white" stroke-width="0.5" d="M319.7108156731737,294.8843395936871L323.2059247597029,294.4006950212825L327.67552924617337,295.38659928272654L332.029212867986,294.43854296300333L332.9447976645769,294.8398368493317L332.410041413517,298.0500546129407L334.46583143624815,301.85180333582355L339.9380563849048,301.25226777402395L341.77378679899084,302.7143858061022L338.58957367078943,311.2331193234033L342.0690999525612,315.58268523472213L342.8710442949466,321.3259611607272L341.9425371724597,326.2180163239273L339.6860710299278,329.6960164278198L333.1933624038755,329.38635773160456L329.26345505777806,325.8517932372711L328.67814970835934,329.1136073889L323.7155964957877,330.01519579462524L321.1934625355649,331.8665749469028L323.96682171394724,336.7370673373485L318.3672738483715,340.8050862007295L310.80923347269544,333.367825404727L305.9485385936588,327.292792167873L301.48235472286683,319.6920542990645L301.71837720467784,317.2482585560466L303.3241662314923,314.8966349289429L305.11086782085437,309.54218775352456L306.5931346148368,304.0885885870452L309.07460125532725,303.6636022126578L319.7742870974289,303.73886870557095Z"/><path class="country" fill="rgb(255, 235, 226)" stroke="white" stroke-width="0.5" d="M460.8726184971787,329.2767798988029L461.29909494698757,332.17584852950085L462.88294522817887,333.84527197693797L462.95082977935317,336.2393017193245L461.13640737689263,337.781252963064L458.2737827823011,341.62565749311636L455.60541541390194,344.29749186067136L452.56410800737706,344.6486058229993L452.09624379625086,335.757466766237L450.246830919451,332.40882096186147L454.713014790243,332.98763539298676L456.96492011187036,328.79559815256056Z"/><path class="country" fill="rgb(254, 234, 225)" stroke="white" stroke-width="0.5" d="M460.5006965181318,319.8638782228747L463.4207621022775,324.01513105334965L462.99546555292716,328.34484827707524L460.8725916834339,329.2765976542436L460.8726184971787,329.2767798988029L456.96492011187036,328.79559815256056L454.713014790243,332.98763539298676L450.246830919451,332.40882096186147L450.92753343945697,328.38136399949866L451.93775526981733,327.8138629434264L452.2102643188649,323.4349032612056L454.32534501335533,321.3841274716098L456.10558543976913,322.13460418287434Z"/><path class="country" fill="rgb(253, 195, 172)" stroke="white" stroke-width="0.5" d="M486.12918381557455,318.5055270865539L471.14353163088515,319.07457705680673L463.0804208727118,318.980347460112L460.5006965181318,319.8638782228747L456.10558543976913,322.13460418287434L454.32534501335533,321.3841274716098L454.3869160955669,315.83848393656916L456.0907627718294,313.0281856710057L456.504657268918,307.1245002426936L458.05191576079096,303.704656694244L460.864041916862,299.8681602756088L463.6894704672378,297.91391991817113L466.0538760378445,295.3008307160115L463.10606545986275,294.30407753849136L463.5511255664661,285.6929045317269L463.55107058308056,285.69286294995527L466.57908620246576,283.6829386454187L471.2559125563396,285.331067519388L477.17628386282,283.60613420092955L482.3509547745485,283.6232346947067L486.8741399286348,280.23253420611053L490.3612582653946,285.35074266363523L491.2213253742059,289.0479687610063L494.45683694003674,297.4985675706906L491.7805087356128,302.8614380608106L488.1612251350823,307.7304140468923L486.05459003902973,310.71051884927476Z"/><path class="country" fill="rgb(255, 243, 238)" stroke="white" stroke-width="0.5" d="M449.90362914638285,534.1705748373272L452.4550283740764,536.7109893806521L450.19894229995316,540.8210812122278L448.94851723528575,543.5894890158713L444.84947944731107,544.9177274150798L443.49719604910854,547.6418937823252L440.8656023871764,548.4909718194597L435.3485293662915,541.9415581592702L439.27045527580583,536.5872759432314L443.2554725411667,533.2957660269368L446.6928112295715,531.5847153794108Z"/><path class="country" fill="rgb(254, 223, 209)" stroke="white" stroke-width="0.5" d="M346.0030318215826,138.71767722036668L347.80927312936035,151.05598866398032L350.56122569328505,153.10728295174204L350.679549751965,155.61092938029967L353.7398605789259,158.30361236556797L352.14015264665056,161.6762838245335L349.306362591284,177.45635210826947L348.9186928143951,187.47459373437104L339.5372305784728,194.69490498361765L336.3616126589118,204.72609499022005L339.42344375950756,207.5362670689258L339.4071008179331,212.40522109817454L344.1237497700662,212.57923825932508L343.38831739920573,216.13606398465706L341.3123837508127,216.56874375979757L341.07560113218426,218.96853542612166L339.7077349292241,219.1349419730472L334.73111918553025,210.8707659911063L333.00484847315323,210.56970106817607L327.25403338091,214.79432111655458L321.55946841315614,212.59017481117695L317.6010559364053,212.1491454579516L315.4787539421492,213.21032668003977L311.16725791370357,212.98111361359622L306.8287770282392,216.19863324621443L303.07788190264586,216.38301538195606L294.17667977057647,212.48022042664599L290.69107239426523,214.33489316188738L286.9378968582196,214.2061159388597L284.17974041618595,211.35177879812505L276.80755349237046,208.52717798570575L268.9032707963561,209.42421356808825L266.98810608484933,211.0609582864168L265.9535598763313,215.4063261018873L263.84532041319756,218.44684144255007L263.33450847188686,225.16213853494014L257.7262190329102,220.83595600836065L255.08968448166533,220.85540104408346L252.6207600986626,223.0584684356745L252.7872300616792,217.90339071823013L244.30714372646403,216.1931755735898L244.0787226128273,212.53900680894188L239.93711716307652,207.59658752351197L238.94950940303468,204.14062480572534L239.53234430779673,200.45554937797948L244.24595271266114,200.1565796071987L246.96534217700622,197.4487857761482L257.00066844067675,196.79310139494532L263.5336643180525,195.58271281610098L264.16001705561234,190.87122204121724L268.18152088820966,185.7471401164605L268.1609971941391,167.9353069248678L278.5323039311124,164.45853270081355L299.826776734511,149.02420630809883L325.0287328478927,133.8479695918939L336.6633869754297,137.29952175124254L340.8000515358674,141.6801917773352Z"/><path class="country" fill="rgb(254, 227, 214)" stroke="white" stroke-width="0.5" d="M197.02739381932548,234.82383079489193L196.54033615355917,230.4791285557185L198.5461471805445,227.30148778899888L198.37625660184955,224.758887545636L204.21429739389282,218.52413106940082L205.29369167463912,213.34991007460553L207.30900441184227,211.5051833783607L210.86568458058306,212.52455451826006L213.94803937524938,210.98492287406364L214.94837942698305,209.04052439660785L220.65472651540716,205.64235127894474L222.05793908037745,203.26871411816538L228.932236388778,200.11369655883018L232.98110514680255,199.0296388285421L234.81683556088876,200.4905567349909L239.53234430779673,200.45554937797948L238.94950940303468,204.14062480572534L239.93711716307652,207.59658752351197L244.0787226128273,212.53900680894188L244.30714372646403,216.1931755735898L252.7872300616792,217.90339071823013L252.6207600986626,223.0584684356745L251.01383086662204,225.30494595977314L247.4187637886014,226.00642353214516L245.9205341214528,229.28590148639398L243.39117886146462,230.13398581575302L236.95015953899747,229.97407528769043L233.54854728101174,229.3771153214463L231.17387986337013,230.5865512490833L227.9246750372785,230.04048021891185L215.1490555467838,230.3935737886916L214.97631445502358,234.6399064468627L215.97950501982282,240.26291388937855L210.94587901482163,238.33845220160634L207.4997987530166,238.62200897215405L204.92711569443503,240.49883795462097L201.62014047021916,238.92327634666367L200.33474911195006,236.4534067122515Z"/><path class="country" fill="rgb(255, 238, 230)" stroke="white" stroke-width="0.5" d="M243.39117886146462,230.13398581575302L242.4554504392121,234.07548497505485L244.70203480311736,236.2823519035988L247.25609450967198,238.8978185552324L247.53544479007644,242.55838962858894L249.01695144724147,244.0936075046074L248.68211117916488,261.1505856285676L250.4935172150934,266.2572265048165L244.57205140733743,267.8348949268367L242.930535950104,265.2375986773206L240.9701430979599,260.54075400257443L240.3859779537673,256.85380828443795L242.01191060624356,250.1662833905033L240.16705855034832,247.4538076627064L239.46621240468053,241.58642595900363L239.47856462796383,236.16573414587737L236.40894212498935,232.30886752525362L236.95015953899747,229.97407528769043Z"/><path class="country" fill="rgb(254, 215, 198)" stroke="white" stroke-width="0.5" d="M236.95015953899747,229.97407528769043L236.40894212498935,232.30886752525362L239.47856462796383,236.16573414587737L239.46621240468053,241.58642595900363L240.16705855034832,247.4538076627064L242.01191060624356,250.1662833905033L240.3859779537673,256.85380828443795L240.9701430979599,260.54075400257443L242.930535950104,265.2375986773206L244.57205140733743,267.8348949268367L233.041536023788,272.1610531876808L228.9523800144398,274.6935016987342L222.32512717170295,276.83470208591353L215.76894712139563,274.73833015295145L216.10302725265475,271.8243571732032L212.91349316673114,265.45592170291155L214.83150839130366,257.0914275099237L217.9307762301577,250.8562442564479L215.97950501982282,240.26291388937855L214.97631445502358,234.6399064468627L215.1490555467838,230.3935737886916L227.9246750372785,230.04048021891185L231.17387986337013,230.5865512490833L233.54854728101174,229.3771153214463Z"/><path class="country" fill="rgb(255, 243, 238)" stroke="white" stroke-width="0.5" d="M114.11623059529862,219.7126812110203L118.0123118530204,218.48558398304266L120.44779021605638,218.72814532753546L122.41958512046193,217.87963194909167L136.01121148446447,218.19606696711145L135.87685730198416,220.7490343732275L135.07130230971603,221.535663444109L135.6972749788671,224.0270913624755L134.53787629808664,225.02281425722964L132.91536426128886,225.03484541206308L130.99734903671623,226.29501667674333L128.76520727234202,226.1557676579469L125.49509868377135,229.81124889840197L121.56861195335236,226.67625604996465L118.47200459335934,226.18001083584812L116.78355068764981,224.06281369640254L116.82649841783436,222.91900173610023L114.5840948064249,221.32299698404157Z"/><path class="country" fill="rgb(249, 106, 77)" stroke="white" stroke-width="0.5" d="M507.91783595859977,145.58409553678433L478.74711619649463,145.58409553678433L450.2105984764008,145.58409553678433L420.6444125911488,145.58409553678433L420.6444125911488,115.96634504483268L420.6444125911488,86.48326006808111L418.4384956427499,79.66660574667617L420.3327173280103,74.40435931224627L419.19456626688026,70.73940473405568L421.8566262124442,66.60769684971345L431.64222471547566,66.46499274873233L438.71964884868936,68.74471797773296L446.02190838053787,71.28475621625529L449.42753583679814,72.6201559421747L455.08990172018036,69.90100598145139L458.117199673471,67.43381316066024L464.6033736367057,66.72241156568884L469.8328376043651,67.81143102022742L471.83664540148874,72.07543636709164L473.54339393296425,69.26903703866748L479.43787643986354,71.29934658032411L485.1707745925591,71.78505714913837L488.7895782548009,69.62157160152418L488.78961690673304,69.62154846294084L492.8921332558841,82.0685788404366L493.62287927398484,84.26640881976252L491.5572178392257,87.65602187803131L489.9745443216517,93.99160593825718L487.9737519812975,98.33224438557335L486.25898674767893,99.78308843005394L483.80800877597244,97.10010635968641L480.48843215922903,93.3758434434321L475.240581260049,81.30574104991561L474.4847312790969,82.0740922297966L477.53225485706037,90.96769456864632L482.0476439521826,99.35796428354513L487.6063075417883,112.20686198764727L490.3225721614751,116.65113862895461L492.68492512325196,121.24654572270092L499.28465677555846,130.1930000686749L497.8233370060209,131.59483502258075L498.0606019703638,136.80441134188683L506.62677917494375,143.95796971557013Z"/><path class="country" fill="rgb(255, 241, 235)" stroke="white" stroke-width="0.5" d="M111.27749965061773,153.4909883534773L112.88252854061469,150.86015251117232L141.68449262133046,150.90952266115963L140.28964156135197,139.44960420502562L142.08812527138406,135.3450065311246L148.9795256581768,134.62604623111147L148.74274303954832,113.91697015971403L172.8820278821672,114.34457219606296L172.9033117130552,101.88093326794277L200.56507056763039,121.72678013309584L189.30896457517227,121.87267625639447L192.85880351255605,156.31517913968256L196.4082623815312,189.79241197358556L197.68244172174312,190.73666037439085L196.0462472222316,196.08981656923953L166.53526552506094,196.20577068655166L165.43192693456567,197.90210856266356L162.58863516898015,197.39597840186252L158.4409486246901,198.90325925336944L153.3050842177449,196.77989427055422L150.97374459869647,196.95571742311523L149.73719203094714,201.44333530107298L147.2619965192006,202.82925023865073L142.4085229399296,197.60030170849313L137.95830194230354,191.98050475300005L133.07632323237897,189.95180786502016L129.56202069120985,187.69749640706118L125.45519150085643,187.78177022359864L121.86658558578378,189.45336706077242L118.21108763077757,188.79149290044307L115.6927543546421,191.24832669953722L115.05575970163831,187.11696671768573L117.10888924550855,183.326438305518L118.02238366585131,176.0601081748481L117.2094173396132,168.39108312727006L116.32119746844985,164.51622444992074L117.0552995998799,160.61683450360664L115.15419741949512,156.8885101462454Z"/><path class="country" fill="rgb(254, 219, 204)" stroke="white" stroke-width="0.5" d="M601.1564132148142,403.9636783707173L603.1088246303751,407.1710446770445L604.9293523081127,412.1610791391596L606.1128853328465,421.28640941233687L608.0185483341359,424.8476475443697L607.2872967157712,428.50721633769245L605.9867026211538,430.75650023579465L603.48851297068,426.2793131879407L602.1058240997804,428.5388014082631L603.5086565963418,434.2093796715344L602.855699070172,437.4645411818322L600.8261337676422,439.24098472680987L600.3628303774203,445.7741425649451L597.466329034615,454.81700985368354L593.8385760734449,465.5903952704051L589.2948582472752,480.56210428988754L586.477791201891,491.67929708747045L583.1537128992832,501.0423103317223L577.1721962829504,502.9651757535636L570.7517006545536,506.40864921240916L566.5158382394421,504.32850178506226L560.6772273447855,501.4213030396687L558.6476620422557,497.14873589602416L558.1623146843286,490.0101459693682L555.572528547355,483.6320792051715L554.899807463932,477.90776439408785L556.217124568533,472.20107833648365L559.6031540217613,470.83455668911927L559.6229175790144,468.2124216299455L563.1381702912054,462.2616841463031L563.800629527593,457.28441295017785L562.0945024408782,453.5971414496113L560.7011716545345,448.7021931311349L560.1135858946634,441.5815455336407L562.6832284059753,437.2758974354682L563.6691258581781,432.4097135993637L567.3348856602196,432.1275231014239L571.4373440638727,430.55842493967066L574.1605342123047,429.1749824566864L577.3911156863694,429.0722912608529L581.5828901660703,424.7231812016247L587.6354795748323,420.0358472896747L589.8425368242314,416.21683340118835L588.8410565672714,412.97915332786175L591.9652188868962,413.8891737474195L596.0194086026428,408.6345264089002L596.1550930245535,404.09953166663723L598.5905713875894,400.73281670660566Z"/><path class="country" fill="rgb(255, 244, 238)" stroke="white" stroke-width="0.5" d="M307.7424614827865,294.7164073232565L319.7108156731737,294.8843395936871L319.7742870974289,303.73886870557095L309.07460125532725,303.6636022126578L306.5931346148368,304.0885885870452L305.21576670165933,302.979349578705Z"/><path class="country" fill="rgb(255, 243, 237)" stroke="white" stroke-width="0.5" d="M113.84942257238176,210.5786946484529L121.85974435442697,210.36205411652753L123.5206433005048,208.56926118974508L125.85236298796194,208.44711924929044L128.75532549371547,210.3108230094884L131.0376362880399,210.34621564853117L133.46266276983624,209.071441751881L134.94854021370156,211.25894804386365L131.7658473591349,212.95592576510796L128.57023217867203,212.82275635110153L125.4152843179415,211.22513691976042L122.68924365644406,212.97115566831653L121.37135644923018,213.03324550400328L119.60403834871248,214.0913796184361L112.90951339763332,213.93194679133217Z"/></svg>